{
	"asset":{
		"generator":"Khronos glTF Blender I/O v4.0.44",
		"version":"2.0"
	},
	"scene":0,
	"scenes":[
		{
			"name":"Scene",
			"nodes":[
				0
			]
		}
	],
	"nodes":[
		{
			"mesh":0,
			"name":"Prop_Ammo"
		}
	],
	"materials":[
		{
			"doubleSided":true,
			"name":"MI_Props_Batch2",
			"normalTexture":{
				"index":0
			},
			"pbrMetallicRoughness":{
				"baseColorTexture":{
					"index":1
				},
				"metallicRoughnessTexture":{
					"index":2
				}
			}
		}
	],
	"meshes":[
		{
			"name":"Cube.227",
			"primitives":[
				{
					"attributes":{
						"POSITION":0,
						"NORMAL":1,
						"TEXCOORD_0":2
					},
					"indices":3,
					"material":0
				}
			]
		}
	],
	"textures":[
		{
			"sampler":0,
			"source":0
		},
		{
			"sampler":0,
			"source":1
		},
		{
			"sampler":0,
			"source":2
		}
	],
	"images":[
		{
			"mimeType":"image/png",
			"name":"T_Props_Batch2_Normal",
			"uri":"T_Props_Batch2_Normal.png"
		},
		{
			"mimeType":"image/png",
			"name":"T_Props_Batch2_BaseColor",
			"uri":"T_Props_Batch2_BaseColor.png"
		},
		{
			"mimeType":"image/png",
			"name":"T_Props_Batch2_ORM",
			"uri":"T_Props_Batch2_ORM.png"
		}
	],
	"accessors":[
		{
			"bufferView":0,
			"componentType":5126,
			"count":6198,
			"max":[
				0.28533104062080383,
				0.2904118299484253,
				0.3614351153373718
			],
			"min":[
				-0.28533104062080383,
				0.008494150824844837,
				-0.3614351451396942
			],
			"type":"VEC3"
		},
		{
			"bufferView":1,
			"componentType":5126,
			"count":6198,
			"type":"VEC3"
		},
		{
			"bufferView":2,
			"componentType":5126,
			"count":6198,
			"type":"VEC2"
		},
		{
			"bufferView":3,
			"componentType":5123,
			"count":22098,
			"type":"SCALAR"
		}
	],
	"bufferViews":[
		{
			"buffer":0,
			"byteLength":74376,
			"byteOffset":0,
			"target":34962
		},
		{
			"buffer":0,
			"byteLength":74376,
			"byteOffset":74376,
			"target":34962
		},
		{
			"buffer":0,
			"byteLength":49584,
			"byteOffset":148752,
			"target":34962
		},
		{
			"buffer":0,
			"byteLength":44196,
			"byteOffset":198336,
			"target":34963
		}
	],
	"samplers":[
		{
			"magFilter":9729,
			"minFilter":9987
		}
	],
	"buffers":[
		{
			"byteLength":242532,
			"uri":"Prop_Ammo.bin"
		}
	]
}
