{
	"asset":{
		"generator":"Khronos glTF Blender I/O v4.0.44",
		"version":"2.0"
	},
	"scene":0,
	"scenes":[
		{
			"name":"Scene",
			"nodes":[
				0
			]
		}
	],
	"nodes":[
		{
			"mesh":0,
			"name":"Prop_Ammo_Small"
		}
	],
	"materials":[
		{
			"doubleSided":true,
			"name":"MI_Props_Batch2",
			"normalTexture":{
				"index":0
			},
			"pbrMetallicRoughness":{
				"baseColorTexture":{
					"index":1
				},
				"metallicRoughnessTexture":{
					"index":2
				}
			}
		}
	],
	"meshes":[
		{
			"name":"Cube.228",
			"primitives":[
				{
					"attributes":{
						"POSITION":0,
						"NORMAL":1,
						"TEXCOORD_0":2
					},
					"indices":3,
					"material":0
				}
			]
		}
	],
	"textures":[
		{
			"sampler":0,
			"source":0
		},
		{
			"sampler":0,
			"source":1
		},
		{
			"sampler":0,
			"source":2
		}
	],
	"images":[
		{
			"mimeType":"image/png",
			"name":"T_Props_Batch2_Normal",
			"uri":"T_Props_Batch2_Normal.png"
		},
		{
			"mimeType":"image/png",
			"name":"T_Props_Batch2_BaseColor",
			"uri":"T_Props_Batch2_BaseColor.png"
		},
		{
			"mimeType":"image/png",
			"name":"T_Props_Batch2_ORM",
			"uri":"T_Props_Batch2_ORM.png"
		}
	],
	"accessors":[
		{
			"bufferView":0,
			"componentType":5126,
			"count":3279,
			"max":[
				0.2011534571647644,
				0.2918747365474701,
				0.21692082285881042
			],
			"min":[
				-0.2011534571647644,
				0.008511088788509369,
				-0.21692079305648804
			],
			"type":"VEC3"
		},
		{
			"bufferView":1,
			"componentType":5126,
			"count":3279,
			"type":"VEC3"
		},
		{
			"bufferView":2,
			"componentType":5126,
			"count":3279,
			"type":"VEC2"
		},
		{
			"bufferView":3,
			"componentType":5123,
			"count":10500,
			"type":"SCALAR"
		}
	],
	"bufferViews":[
		{
			"buffer":0,
			"byteLength":39348,
			"byteOffset":0,
			"target":34962
		},
		{
			"buffer":0,
			"byteLength":39348,
			"byteOffset":39348,
			"target":34962
		},
		{
			"buffer":0,
			"byteLength":26232,
			"byteOffset":78696,
			"target":34962
		},
		{
			"buffer":0,
			"byteLength":21000,
			"byteOffset":104928,
			"target":34963
		}
	],
	"samplers":[
		{
			"magFilter":9729,
			"minFilter":9987
		}
	],
	"buffers":[
		{
			"byteLength":125928,
			"uri":"Prop_Ammo_Small.bin"
		}
	]
}
